<svg xmlns="http://www.w3.org/2000/svg" viewBox="0 0 100 100">
  <defs>
    <linearGradient id="grad" x1="0%" y1="0%" x2="100%" y2="100%">
      <stop offset="0%" style="stop-color:#FF8C00;stop-opacity:1" />
      <stop offset="100%" style="stop-color:#FF0080;stop-opacity:1" />
    </linearGradient>
    <filter id="shadow" x="-20%" y="-20%" width="140%" height="140%">
      <feGaussianBlur in="SourceAlpha" stdDeviation="3" />
      <feOffset dx="2" dy="2" result="offsetblur" />
      <feComponentTransfer>
        <feFuncA type="linear" slope="0.3" />
      </feComponentTransfer>
      <feMerge>
        <feMergeNode />
        <feMergeNode in="SourceGraphic" />
      </feMerge>
    </filter>
  </defs>
  <circle cx="50" cy="50" r="48" fill="url(#grad)" />
  <g filter="url(#shadow)" fill="white">
    <path d="M50 25c-8.3 0-15 6.7-15 15 0 2.1.4 4.1 1.2 5.9-4.2 1.5-7.2 5.5-7.2 10.1 0 6.1 4.9 11 11 11h20c6.1 0 11-4.9 11-11 0-4.6-3-8.6-7.2-10.1.8-1.8 1.2-3.8 1.2-5.9 0-8.3-6.7-15-15-15zm-10 40c-1.1 0-2-.9-2-2s.9-2 2-2 2 .9 2 2-.9 2-2 2zm10 0c-1.1 0-2-.9-2-2s.9-2 2-2 2 .9 2 2-.9 2-2 2zm10 0c-1.1 0-2-.9-2-2s.9-2 2-2 2 .9 2 2-.9 2-2 2z" />
    <path d="M40 70h20v5H40z" />
  </g>
</svg>
